<mxfile host="app.diagrams.net" agent="Mozilla/5.0 (Windows NT 10.0; Win64; x64) AppleWebKit/537.36 (KHTML, like Gecko) Chrome/134.0.0.0 Safari/537.36" version="26.1.1" pages="2">
  <diagram name="Page-1" id="13e1069c-82ec-6db2-03f1-153e76fe0fe0">
    <mxGraphModel dx="1793" dy="965" grid="1" gridSize="10" guides="1" tooltips="1" connect="1" arrows="1" fold="1" page="1" pageScale="1" pageWidth="1100" pageHeight="850" background="none" math="0" shadow="0">
      <root>
        <mxCell id="0" />
        <mxCell id="1" parent="0" />
        <mxCell id="CiSJBHJ4Xn43Z9WM9_8N-1" value="Khách hàng" style="shape=umlLifeline;perimeter=lifelinePerimeter;container=1;collapsible=0;recursiveResize=0;rounded=0;shadow=0;strokeWidth=1;fillColor=#ffe6cc;strokeColor=#d79b00;" parent="1" vertex="1">
          <mxGeometry x="390" y="370" width="100" height="540" as="geometry" />
        </mxCell>
        <mxCell id="CiSJBHJ4Xn43Z9WM9_8N-2" value="" style="points=[];perimeter=orthogonalPerimeter;rounded=0;shadow=0;strokeWidth=1;fillColor=#ffe6cc;strokeColor=#d79b00;" parent="CiSJBHJ4Xn43Z9WM9_8N-1" vertex="1">
          <mxGeometry x="45" y="70" width="10" height="470" as="geometry" />
        </mxCell>
        <mxCell id="CiSJBHJ4Xn43Z9WM9_8N-3" value="Giao diện" style="shape=umlLifeline;perimeter=lifelinePerimeter;container=1;collapsible=0;recursiveResize=0;rounded=0;shadow=0;strokeWidth=1;fillColor=#dae8fc;strokeColor=#6c8ebf;" parent="1" vertex="1">
          <mxGeometry x="670" y="370" width="100" height="550" as="geometry" />
        </mxCell>
        <mxCell id="CiSJBHJ4Xn43Z9WM9_8N-4" value="" style="points=[];perimeter=orthogonalPerimeter;rounded=0;shadow=0;strokeWidth=1;fillColor=#dae8fc;strokeColor=#6c8ebf;" parent="CiSJBHJ4Xn43Z9WM9_8N-3" vertex="1">
          <mxGeometry x="45" y="70" width="10" height="480" as="geometry" />
        </mxCell>
        <mxCell id="wR38wNs-CdR_Del-v1X8-1" value="Hiển thị ô tìm kiếm" style="verticalAlign=bottom;endArrow=open;dashed=1;endSize=8;shadow=0;strokeWidth=1;strokeColor=#FF0000;" edge="1" parent="CiSJBHJ4Xn43Z9WM9_8N-3">
          <mxGeometry relative="1" as="geometry">
            <mxPoint x="50.370000000000005" y="120" as="sourcePoint" />
            <mxPoint x="-224.99956521739125" y="120" as="targetPoint" />
          </mxGeometry>
        </mxCell>
        <mxCell id="CiSJBHJ4Xn43Z9WM9_8N-23" value="Chọn tiêu chí lọc (danh mục, chất liệu, size, giá)" style="verticalAlign=bottom;startArrow=oval;endArrow=block;startSize=8;shadow=0;strokeWidth=1;" parent="CiSJBHJ4Xn43Z9WM9_8N-3" edge="1">
          <mxGeometry relative="1" as="geometry">
            <mxPoint x="-230.36956521739125" y="180" as="sourcePoint" />
            <mxPoint x="45" y="180" as="targetPoint" />
          </mxGeometry>
        </mxCell>
        <mxCell id="CiSJBHJ4Xn43Z9WM9_8N-19" value="Hiển thị &quot;Không tìm thấy sản phẩm&quot;" style="verticalAlign=bottom;endArrow=open;dashed=1;endSize=8;shadow=0;strokeWidth=1;strokeColor=#FF0000;" parent="CiSJBHJ4Xn43Z9WM9_8N-3" edge="1">
          <mxGeometry relative="1" as="geometry">
            <mxPoint x="45" y="350" as="sourcePoint" />
            <mxPoint x="-230.36956521739125" y="350" as="targetPoint" />
          </mxGeometry>
        </mxCell>
        <mxCell id="CiSJBHJ4Xn43Z9WM9_8N-5" value="Hệ thống" style="shape=umlLifeline;perimeter=lifelinePerimeter;container=1;collapsible=0;recursiveResize=0;rounded=0;shadow=0;strokeWidth=1;fillColor=#d5e8d4;strokeColor=#82b366;" parent="1" vertex="1">
          <mxGeometry x="940" y="370" width="100" height="550" as="geometry" />
        </mxCell>
        <mxCell id="CiSJBHJ4Xn43Z9WM9_8N-6" value="" style="points=[];perimeter=orthogonalPerimeter;rounded=0;shadow=0;strokeWidth=1;fillColor=#d5e8d4;strokeColor=#82b366;" parent="CiSJBHJ4Xn43Z9WM9_8N-5" vertex="1">
          <mxGeometry x="45" y="150" width="10" height="400" as="geometry" />
        </mxCell>
        <mxCell id="CiSJBHJ4Xn43Z9WM9_8N-7" value="Database" style="shape=umlLifeline;perimeter=lifelinePerimeter;container=1;collapsible=0;recursiveResize=0;rounded=0;shadow=0;strokeWidth=1;fillColor=#e1d5e7;strokeColor=#9673a6;" parent="1" vertex="1">
          <mxGeometry x="1210" y="370" width="100" height="550" as="geometry" />
        </mxCell>
        <mxCell id="CiSJBHJ4Xn43Z9WM9_8N-8" value="" style="points=[];perimeter=orthogonalPerimeter;rounded=0;shadow=0;strokeWidth=1;fillColor=#e1d5e7;strokeColor=#9673a6;" parent="CiSJBHJ4Xn43Z9WM9_8N-7" vertex="1">
          <mxGeometry x="45" y="240" width="10" height="310" as="geometry" />
        </mxCell>
        <mxCell id="CiSJBHJ4Xn43Z9WM9_8N-9" value="Chọn chức năng &quot;Tìm kiếm&quot;" style="verticalAlign=bottom;startArrow=oval;endArrow=block;startSize=8;shadow=0;strokeWidth=1;" parent="1" source="CiSJBHJ4Xn43Z9WM9_8N-2" target="CiSJBHJ4Xn43Z9WM9_8N-4" edge="1">
          <mxGeometry relative="1" as="geometry">
            <mxPoint x="645" y="450" as="sourcePoint" />
            <Array as="points">
              <mxPoint x="610" y="450" />
            </Array>
          </mxGeometry>
        </mxCell>
        <mxCell id="CiSJBHJ4Xn43Z9WM9_8N-10" value="Nhập thông tin tìm kiếm" style="verticalAlign=bottom;startArrow=oval;endArrow=block;startSize=8;shadow=0;strokeWidth=1;" parent="1" edge="1">
          <mxGeometry relative="1" as="geometry">
            <mxPoint x="439.63043478260875" y="530" as="sourcePoint" />
            <mxPoint x="715" y="530" as="targetPoint" />
          </mxGeometry>
        </mxCell>
        <mxCell id="CiSJBHJ4Xn43Z9WM9_8N-11" value="[Nếu không nhập thông tin]" style="text;html=1;align=center;verticalAlign=middle;resizable=0;points=[];autosize=1;strokeColor=none;fillColor=none;fontStyle=2" parent="1" vertex="1">
          <mxGeometry x="500" y="560" width="170" height="30" as="geometry" />
        </mxCell>
        <mxCell id="CiSJBHJ4Xn43Z9WM9_8N-12" value="Hiển thị &quot;Vui lòng nhập thông tin tìm kiếm&quot;" style="verticalAlign=bottom;endArrow=open;dashed=1;endSize=8;shadow=0;strokeWidth=1;strokeColor=#FF0000;" parent="1" edge="1">
          <mxGeometry relative="1" as="geometry">
            <mxPoint x="715" y="609.13" as="sourcePoint" />
            <mxPoint x="439.63043478260875" y="609.13" as="targetPoint" />
          </mxGeometry>
        </mxCell>
        <mxCell id="CiSJBHJ4Xn43Z9WM9_8N-13" value="[Nếu đã nhập thông tin]" style="text;html=1;align=center;verticalAlign=middle;resizable=0;points=[];autosize=1;strokeColor=none;fillColor=none;fontStyle=2" parent="1" vertex="1">
          <mxGeometry x="780" y="490" width="150" height="30" as="geometry" />
        </mxCell>
        <mxCell id="CiSJBHJ4Xn43Z9WM9_8N-14" value="Gửi yêu cầu tìm kiếm" style="verticalAlign=bottom;endArrow=block;shadow=0;strokeWidth=1;" parent="1" edge="1">
          <mxGeometry relative="1" as="geometry">
            <mxPoint x="722.75" y="540" as="sourcePoint" />
            <mxPoint x="987.25" y="540" as="targetPoint" />
          </mxGeometry>
        </mxCell>
        <mxCell id="CiSJBHJ4Xn43Z9WM9_8N-15" value="Truy vấn sản phẩm" style="verticalAlign=bottom;endArrow=block;shadow=0;strokeWidth=1;" parent="1" edge="1">
          <mxGeometry relative="1" as="geometry">
            <mxPoint x="995" y="630" as="sourcePoint" />
            <mxPoint x="1259.5" y="630" as="targetPoint" />
          </mxGeometry>
        </mxCell>
        <mxCell id="CiSJBHJ4Xn43Z9WM9_8N-16" value="Trả về kết quả tìm kiếm" style="verticalAlign=bottom;endArrow=open;dashed=1;endSize=8;shadow=0;strokeWidth=1;" parent="1" edge="1">
          <mxGeometry relative="1" as="geometry">
            <mxPoint x="1259.5" y="660" as="sourcePoint" />
            <mxPoint x="995" y="660" as="targetPoint" />
          </mxGeometry>
        </mxCell>
        <mxCell id="CiSJBHJ4Xn43Z9WM9_8N-17" value="[Nếu không có kết quả]" style="text;html=1;align=center;verticalAlign=middle;resizable=0;points=[];autosize=1;strokeColor=none;fillColor=none;fontStyle=2" parent="1" vertex="1">
          <mxGeometry x="780" y="630" width="150" height="30" as="geometry" />
        </mxCell>
        <mxCell id="CiSJBHJ4Xn43Z9WM9_8N-18" value="Trả về kết quả trống" style="verticalAlign=bottom;endArrow=open;dashed=1;endSize=8;shadow=0;strokeWidth=1;strokeColor=#FF0000;" parent="1" edge="1">
          <mxGeometry relative="1" as="geometry">
            <mxPoint x="987.25" y="680" as="sourcePoint" />
            <mxPoint x="722.75" y="680" as="targetPoint" />
          </mxGeometry>
        </mxCell>
        <mxCell id="CiSJBHJ4Xn43Z9WM9_8N-20" value="[Nếu có kết quả]" style="text;html=1;align=center;verticalAlign=middle;resizable=0;points=[];autosize=1;strokeColor=none;fillColor=none;fontStyle=2" parent="1" vertex="1">
          <mxGeometry x="790" y="720" width="110" height="30" as="geometry" />
        </mxCell>
        <mxCell id="CiSJBHJ4Xn43Z9WM9_8N-21" value="Trả về kết quả tìm kiếm" style="verticalAlign=bottom;endArrow=open;dashed=1;endSize=8;shadow=0;strokeWidth=1;" parent="1" edge="1">
          <mxGeometry relative="1" as="geometry">
            <mxPoint x="987.25" y="777.07" as="sourcePoint" />
            <mxPoint x="722.75" y="777.07" as="targetPoint" />
          </mxGeometry>
        </mxCell>
        <mxCell id="CiSJBHJ4Xn43Z9WM9_8N-22" value="Hiển thị số lượng kết quả và danh sách sản phẩm" style="verticalAlign=bottom;endArrow=open;dashed=1;endSize=8;shadow=0;strokeWidth=1;" parent="1" edge="1">
          <mxGeometry x="-0.0196" relative="1" as="geometry">
            <mxPoint x="715" y="805" as="sourcePoint" />
            <mxPoint x="439.63043478260875" y="805" as="targetPoint" />
            <mxPoint as="offset" />
          </mxGeometry>
        </mxCell>
        <mxCell id="CiSJBHJ4Xn43Z9WM9_8N-24" value="Chọn sản phẩm để xem chi tiết" style="verticalAlign=bottom;startArrow=oval;endArrow=block;startSize=8;shadow=0;strokeWidth=1;" parent="1" edge="1">
          <mxGeometry relative="1" as="geometry">
            <mxPoint x="439.63043478260875" y="835" as="sourcePoint" />
            <mxPoint x="715" y="835" as="targetPoint" />
          </mxGeometry>
        </mxCell>
        <mxCell id="CiSJBHJ4Xn43Z9WM9_8N-25" value="Sơ đồ trình tự: Tìm kiếm và lọc sản phẩm" style="text;html=1;strokeColor=none;fillColor=none;align=center;verticalAlign=middle;whiteSpace=wrap;rounded=0;fontSize=16;fontStyle=1" parent="1" vertex="1">
          <mxGeometry x="670" y="320" width="300" height="30" as="geometry" />
        </mxCell>
        <mxCell id="wR38wNs-CdR_Del-v1X8-2" value="Actor&#xa;(Khách hàng)" style="shape=umlActor;verticalLabelPosition=bottom;verticalAlign=top;html=1;" vertex="1" parent="1">
          <mxGeometry x="1520" y="360" width="30" height="60" as="geometry" />
        </mxCell>
        <mxCell id="wR38wNs-CdR_Del-v1X8-3" value="Header" style="html=1;align=center;verticalAlign=middle;rounded=1;absoluteArcSize=1;arcSize=10;dashed=0;" vertex="1" parent="1">
          <mxGeometry x="1765" y="380" width="100" height="40" as="geometry" />
        </mxCell>
        <mxCell id="wR38wNs-CdR_Del-v1X8-4" value="Hệ thống" style="html=1;align=center;verticalAlign=middle;rounded=1;absoluteArcSize=1;arcSize=10;dashed=0;" vertex="1" parent="1">
          <mxGeometry x="2055" y="380" width="100" height="40" as="geometry" />
        </mxCell>
        <mxCell id="wR38wNs-CdR_Del-v1X8-5" value="Cơ sở dữ liệu" style="html=1;align=center;verticalAlign=middle;rounded=1;absoluteArcSize=1;arcSize=10;dashed=0;" vertex="1" parent="1">
          <mxGeometry x="2310" y="380" width="120" height="40" as="geometry" />
        </mxCell>
        <mxCell id="wR38wNs-CdR_Del-v1X8-6" value="" style="html=1;points=[];perimeter=orthogonalPerimeter;" vertex="1" parent="1">
          <mxGeometry x="1530" y="440" width="10" height="560" as="geometry" />
        </mxCell>
        <mxCell id="wR38wNs-CdR_Del-v1X8-7" value="" style="html=1;points=[];perimeter=orthogonalPerimeter;" vertex="1" parent="1">
          <mxGeometry x="1810" y="440" width="10" height="560" as="geometry" />
        </mxCell>
        <mxCell id="wR38wNs-CdR_Del-v1X8-8" value="" style="html=1;points=[];perimeter=orthogonalPerimeter;" vertex="1" parent="1">
          <mxGeometry x="2100" y="440" width="10" height="560" as="geometry" />
        </mxCell>
        <mxCell id="wR38wNs-CdR_Del-v1X8-9" value="" style="html=1;points=[];perimeter=orthogonalPerimeter;" vertex="1" parent="1">
          <mxGeometry x="2365" y="440" width="10" height="560" as="geometry" />
        </mxCell>
        <mxCell id="wR38wNs-CdR_Del-v1X8-10" value="Chọn danh mục" style="html=1;verticalAlign=bottom;endArrow=block;entryX=0;entryY=0;exitX=1;exitY=0;" edge="1" parent="1" source="wR38wNs-CdR_Del-v1X8-6" target="wR38wNs-CdR_Del-v1X8-7">
          <mxGeometry relative="1" as="geometry">
            <mxPoint x="1770" y="450" as="sourcePoint" />
          </mxGeometry>
        </mxCell>
        <mxCell id="wR38wNs-CdR_Del-v1X8-11" value="Gửi yêu cầu danh mục" style="html=1;verticalAlign=bottom;endArrow=block;entryX=0;entryY=0.1;exitX=1;exitY=0.1;" edge="1" parent="1">
          <mxGeometry relative="1" as="geometry">
            <mxPoint x="1820" y="469.9999999999998" as="sourcePoint" />
            <mxPoint x="2100" y="470.00000000000114" as="targetPoint" />
          </mxGeometry>
        </mxCell>
        <mxCell id="wR38wNs-CdR_Del-v1X8-12" value="alt" style="shape=umlFrame;whiteSpace=wrap;html=1;width=40;height=20;" vertex="1" parent="1">
          <mxGeometry x="1490" y="485" width="940" height="470" as="geometry" />
        </mxCell>
        <mxCell id="wR38wNs-CdR_Del-v1X8-13" value="[Có sản phẩm trong danh mục]" style="text;html=1;align=center;verticalAlign=middle;resizable=0;points=[];autosize=1;" vertex="1" parent="1">
          <mxGeometry x="1490" y="510" width="190" height="30" as="geometry" />
        </mxCell>
        <mxCell id="wR38wNs-CdR_Del-v1X8-14" value="" style="endArrow=none;dashed=1;html=1;entryX=1;entryY=0.5;entryDx=0;entryDy=0;entryPerimeter=0;exitX=0;exitY=0.5;exitDx=0;exitDy=0;exitPerimeter=0;" edge="1" parent="1">
          <mxGeometry width="50" height="50" relative="1" as="geometry">
            <mxPoint x="1490" y="800" as="sourcePoint" />
            <mxPoint x="2429.9999999999995" y="800" as="targetPoint" />
          </mxGeometry>
        </mxCell>
        <mxCell id="wR38wNs-CdR_Del-v1X8-15" value="[Không có sản phẩm trong danh mục]" style="text;html=1;align=center;verticalAlign=middle;resizable=0;points=[];autosize=1;" vertex="1" parent="1">
          <mxGeometry x="1490" y="805" width="220" height="30" as="geometry" />
        </mxCell>
        <mxCell id="wR38wNs-CdR_Del-v1X8-16" value="Truy vấn sản phẩm theo danh mục" style="html=1;verticalAlign=bottom;endArrow=block;entryX=0;entryY=0.2;exitX=1;exitY=0.2;" edge="1" parent="1">
          <mxGeometry relative="1" as="geometry">
            <mxPoint x="2110" y="520.0000000000005" as="sourcePoint" />
            <mxPoint x="2364.9999999999995" y="520.0000000000011" as="targetPoint" />
          </mxGeometry>
        </mxCell>
        <mxCell id="wR38wNs-CdR_Del-v1X8-17" value="Trả về danh sách sản phẩm" style="html=1;verticalAlign=bottom;endArrow=open;dashed=1;endSize=8;exitX=0;exitY=0.25;entryX=1;entryY=0.25;" edge="1" parent="1">
          <mxGeometry relative="1" as="geometry">
            <mxPoint x="2110" y="549.9999999999995" as="targetPoint" />
            <mxPoint x="2364.9999999999995" y="550" as="sourcePoint" />
          </mxGeometry>
        </mxCell>
        <mxCell id="wR38wNs-CdR_Del-v1X8-18" value="Hiển thị sản phẩm theo danh mục" style="html=1;verticalAlign=bottom;endArrow=open;dashed=1;endSize=8;exitX=0;exitY=0.3;entryX=1;entryY=0.3;" edge="1" parent="1">
          <mxGeometry relative="1" as="geometry">
            <mxPoint x="1540" y="579.9999999999998" as="targetPoint" />
            <mxPoint x="2100" y="580" as="sourcePoint" />
          </mxGeometry>
        </mxCell>
        <mxCell id="wR38wNs-CdR_Del-v1X8-19" value="Lọc/Sắp xếp sản phẩm" style="html=1;verticalAlign=bottom;endArrow=block;entryX=0;entryY=0.35;exitX=1;exitY=0.35;" edge="1" parent="1" source="wR38wNs-CdR_Del-v1X8-6" target="wR38wNs-CdR_Del-v1X8-8">
          <mxGeometry relative="1" as="geometry">
            <mxPoint x="1770" y="570" as="sourcePoint" />
          </mxGeometry>
        </mxCell>
        <mxCell id="wR38wNs-CdR_Del-v1X8-20" value="Truy vấn lọc/sắp xếp" style="html=1;verticalAlign=bottom;endArrow=block;entryX=0;entryY=0.4;exitX=1;exitY=0.4;" edge="1" parent="1" source="wR38wNs-CdR_Del-v1X8-8" target="wR38wNs-CdR_Del-v1X8-9">
          <mxGeometry relative="1" as="geometry">
            <mxPoint x="2080" y="590" as="sourcePoint" />
          </mxGeometry>
        </mxCell>
        <mxCell id="wR38wNs-CdR_Del-v1X8-21" value="Trả về kết quả lọc/sắp xếp" style="html=1;verticalAlign=bottom;endArrow=open;dashed=1;endSize=8;exitX=0;exitY=0.45;entryX=1;entryY=0.45;" edge="1" parent="1" source="wR38wNs-CdR_Del-v1X8-9" target="wR38wNs-CdR_Del-v1X8-8">
          <mxGeometry relative="1" as="geometry">
            <mxPoint x="2080" y="610" as="targetPoint" />
          </mxGeometry>
        </mxCell>
        <mxCell id="wR38wNs-CdR_Del-v1X8-22" value="Hiển thị kết quả lọc/sắp xếp" style="html=1;verticalAlign=bottom;endArrow=open;dashed=1;endSize=8;exitX=0;exitY=0.5;entryX=1;entryY=0.5;" edge="1" parent="1" source="wR38wNs-CdR_Del-v1X8-8" target="wR38wNs-CdR_Del-v1X8-6">
          <mxGeometry relative="1" as="geometry">
            <mxPoint x="1770" y="630" as="targetPoint" />
          </mxGeometry>
        </mxCell>
        <mxCell id="wR38wNs-CdR_Del-v1X8-23" value="4. Chọn sản phẩm để xem chi tiết" style="html=1;verticalAlign=bottom;endArrow=block;entryX=0;entryY=0.55;exitX=1;exitY=0.55;" edge="1" parent="1" source="wR38wNs-CdR_Del-v1X8-6" target="wR38wNs-CdR_Del-v1X8-8">
          <mxGeometry relative="1" as="geometry">
            <mxPoint x="1770" y="650" as="sourcePoint" />
          </mxGeometry>
        </mxCell>
        <mxCell id="wR38wNs-CdR_Del-v1X8-24" value="Chuyển sang Use case &quot;Xem chi tiết sản phẩm&quot;" style="shape=note;whiteSpace=wrap;html=1;size=14;verticalAlign=top;align=center;spacingTop=-6;" vertex="1" parent="1">
          <mxGeometry x="1510" y="760" width="610" height="35" as="geometry" />
        </mxCell>
        <mxCell id="wR38wNs-CdR_Del-v1X8-25" value="Truy vấn sản phẩm theo danh mục" style="html=1;verticalAlign=bottom;endArrow=block;entryX=0;entryY=0.7;exitX=1;exitY=0.7;" edge="1" parent="1" source="wR38wNs-CdR_Del-v1X8-8" target="wR38wNs-CdR_Del-v1X8-9">
          <mxGeometry relative="1" as="geometry">
            <mxPoint x="2080" y="710" as="sourcePoint" />
          </mxGeometry>
        </mxCell>
        <mxCell id="wR38wNs-CdR_Del-v1X8-26" value="Trả về danh sách trống" style="html=1;verticalAlign=bottom;endArrow=open;dashed=1;endSize=8;exitX=0;exitY=0.75;entryX=1;entryY=0.75;" edge="1" parent="1" source="wR38wNs-CdR_Del-v1X8-9" target="wR38wNs-CdR_Del-v1X8-8">
          <mxGeometry relative="1" as="geometry">
            <mxPoint x="2080" y="730" as="targetPoint" />
          </mxGeometry>
        </mxCell>
        <mxCell id="wR38wNs-CdR_Del-v1X8-27" value="Hiển thị &quot;Danh mục trống&quot;" style="html=1;verticalAlign=bottom;endArrow=open;dashed=1;endSize=8;exitX=0;exitY=0.8;entryX=1;entryY=0.8;" edge="1" parent="1" source="wR38wNs-CdR_Del-v1X8-8" target="wR38wNs-CdR_Del-v1X8-6">
          <mxGeometry relative="1" as="geometry">
            <mxPoint x="1770" y="750" as="targetPoint" />
          </mxGeometry>
        </mxCell>
        <mxCell id="wR38wNs-CdR_Del-v1X8-31" value="Chuyển sang Use case &quot;Xem chi tiết sản phẩm&quot;" style="shape=note;whiteSpace=wrap;html=1;size=14;verticalAlign=top;align=center;spacingTop=-6;" vertex="1" parent="1">
          <mxGeometry x="460" y="850" width="250" height="35" as="geometry" />
        </mxCell>
      </root>
    </mxGraphModel>
  </diagram>
  <diagram name="Sequence Diagram - Xem danh sách sản phẩm" id="tBVd2Vyf2i5adsl5Acp0">
    <mxGraphModel dx="1422" dy="762" grid="1" gridSize="10" guides="1" tooltips="1" connect="1" arrows="1" fold="1" page="1" pageScale="1" pageWidth="850" pageHeight="1100" math="0" shadow="0">
      <root>
        <mxCell id="0" />
        <mxCell id="1" parent="0" />
        <!-- Actors and Objects -->
        <mxCell id="actor" value="Actor&#xa;(Khách hàng)" style="shape=umlActor;verticalLabelPosition=bottom;verticalAlign=top;html=1;" parent="1" vertex="1">
          <mxGeometry x="70" y="80" width="30" height="60" as="geometry" />
        </mxCell>
        <mxCell id="header_object" value="Header" style="html=1;align=center;verticalAlign=middle;rounded=1;absoluteArcSize=1;arcSize=10;dashed=0;" parent="1" vertex="1">
          <mxGeometry x="190" y="90" width="100" height="40" as="geometry" />
        </mxCell>
        <mxCell id="system_object" value="Hệ thống" style="html=1;align=center;verticalAlign=middle;rounded=1;absoluteArcSize=1;arcSize=10;dashed=0;" parent="1" vertex="1">
          <mxGeometry x="350" y="90" width="100" height="40" as="geometry" />
        </mxCell>
        <mxCell id="database_object" value="Cơ sở dữ liệu" style="html=1;align=center;verticalAlign=middle;rounded=1;absoluteArcSize=1;arcSize=10;dashed=0;" parent="1" vertex="1">
          <mxGeometry x="510" y="90" width="120" height="40" as="geometry" />
        </mxCell>
        <!-- Lifelines -->
        <mxCell id="actor_lifeline" value="" style="html=1;points=[];perimeter=orthogonalPerimeter;" parent="1" vertex="1">
          <mxGeometry x="85" y="150" width="10" height="450" as="geometry" />
        </mxCell>
        <mxCell id="header_lifeline" value="" style="html=1;points=[];perimeter=orthogonalPerimeter;" parent="1" vertex="1">
          <mxGeometry x="235" y="150" width="10" height="450" as="geometry" />
        </mxCell>
        <mxCell id="system_lifeline" value="" style="html=1;points=[];perimeter=orthogonalPerimeter;" parent="1" vertex="1">
          <mxGeometry x="395" y="150" width="10" height="450" as="geometry" />
        </mxCell>
        <mxCell id="database_lifeline" value="" style="html=1;points=[];perimeter=orthogonalPerimeter;" parent="1" vertex="1">
          <mxGeometry x="565" y="150" width="10" height="450" as="geometry" />
        </mxCell>
        <!-- Messages and Flows -->
        <mxCell id="msg1" value="1. Chọn danh mục" style="html=1;verticalAlign=bottom;endArrow=block;entryX=0;entryY=0;exitX=1;exitY=0;" parent="1" source="actor_lifeline" target="header_lifeline" edge="1">
          <mxGeometry relative="1" as="geometry">
            <mxPoint x="100" y="160" as="sourcePoint" />
          </mxGeometry>
        </mxCell>
        <mxCell id="msg2" value="Gửi yêu cầu danh mục" style="html=1;verticalAlign=bottom;endArrow=block;entryX=0;entryY=0.1;exitX=1;exitY=0.1;" parent="1" source="header_lifeline" target="system_lifeline" edge="1">
          <mxGeometry relative="1" as="geometry">
            <mxPoint x="250" y="180" as="sourcePoint" />
          </mxGeometry>
        </mxCell>
        <!-- Alt Fragment -->
        <mxCell id="alt_fragment" value="alt" style="shape=umlFrame;whiteSpace=wrap;html=1;width=40;height=20;" parent="1" vertex="1">
          <mxGeometry x="40" y="200" width="600" height="360" as="geometry" />
        </mxCell>
        <mxCell id="alt_condition1" value="Có sản phẩm trong danh mục" style="text;html=1;align=center;verticalAlign=middle;resizable=0;points=[];autosize=1;" parent="1" vertex="1">
          <mxGeometry x="80" y="200" width="180" height="20" as="geometry" />
        </mxCell>
        <mxCell id="alt_divider" value="" style="endArrow=none;dashed=1;html=1;entryX=1;entryY=0.5;entryDx=0;entryDy=0;entryPerimeter=0;exitX=0;exitY=0.5;exitDx=0;exitDy=0;exitPerimeter=0;" parent="1" source="alt_fragment" target="alt_fragment" edge="1">
          <mxGeometry width="50" height="50" relative="1" as="geometry">
            <mxPoint x="40" y="400" as="sourcePoint" />
            <mxPoint x="640" y="400" as="targetPoint" />
          </mxGeometry>
        </mxCell>
        <mxCell id="alt_condition2" value="Không có sản phẩm trong danh mục" style="text;html=1;align=center;verticalAlign=middle;resizable=0;points=[];autosize=1;" parent="1" vertex="1">
          <mxGeometry x="80" y="400" width="210" height="20" as="geometry" />
        </mxCell>
        <!-- Main Flow -->
        <mxCell id="msg3" value="Truy vấn sản phẩm theo danh mục" style="html=1;verticalAlign=bottom;endArrow=block;entryX=0;entryY=0.2;exitX=1;exitY=0.2;" parent="1" source="system_lifeline" target="database_lifeline" edge="1">
          <mxGeometry relative="1" as="geometry">
            <mxPoint x="410" y="220" as="sourcePoint" />
          </mxGeometry>
        </mxCell>
        <mxCell id="msg4" value="Trả về danh sách sản phẩm" style="html=1;verticalAlign=bottom;endArrow=open;dashed=1;endSize=8;exitX=0;exitY=0.25;entryX=1;entryY=0.25;" parent="1" source="database_lifeline" target="system_lifeline" edge="1">
          <mxGeometry relative="1" as="geometry">
            <mxPoint x="410" y="240" as="targetPoint" />
          </mxGeometry>
        </mxCell>
        <mxCell id="msg5" value="2. Hiển thị sản phẩm theo danh mục" style="html=1;verticalAlign=bottom;endArrow=open;dashed=1;endSize=8;exitX=0;exitY=0.3;entryX=1;entryY=0.3;" parent="1" source="system_lifeline" target="actor_lifeline" edge="1">
          <mxGeometry relative="1" as="geometry">
            <mxPoint x="100" y="260" as="targetPoint" />
          </mxGeometry>
        </mxCell>
        <mxCell id="msg6" value="3. Lọc/Sắp xếp sản phẩm" style="html=1;verticalAlign=bottom;endArrow=block;entryX=0;entryY=0.35;exitX=1;exitY=0.35;" parent="1" source="actor_lifeline" target="system_lifeline" edge="1">
          <mxGeometry relative="1" as="geometry">
            <mxPoint x="100" y="280" as="sourcePoint" />
          </mxGeometry>
        </mxCell>
        <mxCell id="msg7" value="Truy vấn lọc/sắp xếp" style="html=1;verticalAlign=bottom;endArrow=block;entryX=0;entryY=0.4;exitX=1;exitY=0.4;" parent="1" source="system_lifeline" target="database_lifeline" edge="1">
          <mxGeometry relative="1" as="geometry">
            <mxPoint x="410" y="300" as="sourcePoint" />
          </mxGeometry>
        </mxCell>
        <mxCell id="msg8" value="Trả về kết quả lọc/sắp xếp" style="html=1;verticalAlign=bottom;endArrow=open;dashed=1;endSize=8;exitX=0;exitY=0.45;entryX=1;entryY=0.45;" parent="1" source="database_lifeline" target="system_lifeline" edge="1">
          <mxGeometry relative="1" as="geometry">
            <mxPoint x="410" y="320" as="targetPoint" />
          </mxGeometry>
        </mxCell>
        <mxCell id="msg9" value="Hiển thị kết quả lọc/sắp xếp" style="html=1;verticalAlign=bottom;endArrow=open;dashed=1;endSize=8;exitX=0;exitY=0.5;entryX=1;entryY=0.5;" parent="1" source="system_lifeline" target="actor_lifeline" edge="1">
          <mxGeometry relative="1" as="geometry">
            <mxPoint x="100" y="340" as="targetPoint" />
          </mxGeometry>
        </mxCell>
        <mxCell id="msg10" value="4. Chọn sản phẩm để xem chi tiết" style="html=1;verticalAlign=bottom;endArrow=block;entryX=0;entryY=0.55;exitX=1;exitY=0.55;" parent="1" source="actor_lifeline" target="system_lifeline" edge="1">
          <mxGeometry relative="1" as="geometry">
            <mxPoint x="100" y="360" as="sourcePoint" />
          </mxGeometry>
        </mxCell>
        <mxCell id="note1" value="Chuyển sang Use case&#xa;&quot;Xem chi tiết sản phẩm&quot;" style="shape=note;whiteSpace=wrap;html=1;size=14;verticalAlign=top;align=left;spacingTop=-6;" parent="1" vertex="1">
          <mxGeometry x="180" y="360" width="180" height="35" as="geometry" />
        </mxCell>
        <!-- Exception Flow -->
        <mxCell id="msg11" value="Truy vấn sản phẩm theo danh mục" style="html=1;verticalAlign=bottom;endArrow=block;entryX=0;entryY=0.7;exitX=1;exitY=0.7;" parent="1" source="system_lifeline" target="database_lifeline" edge="1">
          <mxGeometry relative="1" as="geometry">
            <mxPoint x="410" y="420" as="sourcePoint" />
          </mxGeometry>
        </mxCell>
        <mxCell id="msg12" value="Trả về danh sách trống" style="html=1;verticalAlign=bottom;endArrow=open;dashed=1;endSize=8;exitX=0;exitY=0.75;entryX=1;entryY=0.75;" parent="1" source="database_lifeline" target="system_lifeline" edge="1">
          <mxGeometry relative="1" as="geometry">
            <mxPoint x="410" y="440" as="targetPoint" />
          </mxGeometry>
        </mxCell>
        <mxCell id="msg13" value="Hiển thị &quot;Danh mục trống&quot;" style="html=1;verticalAlign=bottom;endArrow=open;dashed=1;endSize=8;exitX=0;exitY=0.8;entryX=1;entryY=0.8;" parent="1" source="system_lifeline" target="actor_lifeline" edge="1">
          <mxGeometry relative="1" as="geometry">
            <mxPoint x="100" y="460" as="targetPoint" />
          </mxGeometry>
        </mxCell>
      </root>
    </mxGraphModel>
  </diagram>
</mxfile>
